<svg width="25" height="21" viewBox="0 0 25 21" fill="none" xmlns="http://www.w3.org/2000/svg">
<path d="M12.6365 0.541992C13.3186 0.541992 13.8697 1.09307 13.8697 1.77518V4.24155H18.4942C20.0279 4.24155 21.2688 5.48244 21.2688 7.01621V17.4983C21.2688 19.0321 20.0279 20.2729 18.4942 20.2729H6.77891C5.24513 20.2729 4.00424 19.0321 4.00424 17.4983V7.01621C4.00424 5.48244 5.24513 4.24155 6.77891 4.24155H11.4033V1.77518C11.4033 1.09307 11.9544 0.541992 12.6365 0.541992ZM8.32039 15.3402C7.98126 15.3402 7.70379 15.6177 7.70379 15.9568C7.70379 16.2959 7.98126 16.5734 8.32039 16.5734H9.55357C9.8927 16.5734 10.1702 16.2959 10.1702 15.9568C10.1702 15.6177 9.8927 15.3402 9.55357 15.3402H8.32039ZM12.0199 15.3402C11.6808 15.3402 11.4033 15.6177 11.4033 15.9568C11.4033 16.2959 11.6808 16.5734 12.0199 16.5734H13.2531C13.5923 16.5734 13.8697 16.2959 13.8697 15.9568C13.8697 15.6177 13.5923 15.3402 13.2531 15.3402H12.0199ZM15.7195 15.3402C15.3804 15.3402 15.1029 15.6177 15.1029 15.9568C15.1029 16.2959 15.3804 16.5734 15.7195 16.5734H16.9527C17.2918 16.5734 17.5693 16.2959 17.5693 15.9568C17.5693 15.6177 17.2918 15.3402 16.9527 15.3402H15.7195ZM10.4785 10.4075C10.4785 9.99864 10.3161 9.60656 10.027 9.31748C9.73789 9.02839 9.3458 8.86599 8.93698 8.86599C8.52815 8.86599 8.13607 9.02839 7.84699 9.31748C7.5579 9.60656 7.3955 9.99864 7.3955 10.4075C7.3955 10.8163 7.5579 11.2084 7.84699 11.4975C8.13607 11.7865 8.52815 11.9489 8.93698 11.9489C9.3458 11.9489 9.73789 11.7865 10.027 11.4975C10.3161 11.2084 10.4785 10.8163 10.4785 10.4075ZM16.3361 11.9489C16.7449 11.9489 17.137 11.7865 17.4261 11.4975C17.7152 11.2084 17.8776 10.8163 17.8776 10.4075C17.8776 9.99864 17.7152 9.60656 17.4261 9.31748C17.137 9.02839 16.7449 8.86599 16.3361 8.86599C15.9273 8.86599 15.5352 9.02839 15.2461 9.31748C14.957 9.60656 14.7946 9.99864 14.7946 10.4075C14.7946 10.8163 14.957 11.2084 15.2461 11.4975C15.5352 11.7865 15.9273 11.9489 16.3361 11.9489ZM2.15446 9.17428H2.77106V16.5734H2.15446C1.13323 16.5734 0.304688 15.7448 0.304688 14.7236V11.0241C0.304688 10.0028 1.13323 9.17428 2.15446 9.17428ZM23.1186 9.17428C24.1398 9.17428 24.9684 10.0028 24.9684 11.0241V14.7236C24.9684 15.7448 24.1398 16.5734 23.1186 16.5734H22.502V9.17428H23.1186Z" fill="black"/>
</svg>
