<svg width="18" height="20" viewBox="0 0 18 20" fill="none" xmlns="http://www.w3.org/2000/svg">
<g clip-path="url(#clip0_666_741)">
<path d="M9.30553 9.8707C10.6183 9.8707 11.8772 9.35736 12.8055 8.44362C13.7337 7.52987 14.2552 6.29057 14.2552 4.99834C14.2552 3.70611 13.7337 2.4668 12.8055 1.55306C11.8772 0.639313 10.6183 0.125977 9.30553 0.125977C7.99279 0.125977 6.73381 0.639313 5.80556 1.55306C4.87731 2.4668 4.35583 3.70611 4.35583 4.99834C4.35583 6.29057 4.87731 7.52987 5.80556 8.44362C6.73381 9.35736 7.99279 9.8707 9.30553 9.8707ZM7.53833 11.6978C3.72938 11.6978 0.643555 14.7354 0.643555 18.4849C0.643555 19.1092 1.15786 19.6154 1.79204 19.6154H16.819C17.4532 19.6154 17.9675 19.1092 17.9675 18.4849C17.9675 14.7354 14.8817 11.6978 11.0727 11.6978H7.53833Z" fill="black"/>
</g>
<defs>
<clipPath id="clip0_666_741">
<rect width="17.324" height="19.4894" fill="white" transform="translate(0.643555 0.125977)"/>
</clipPath>
</defs>
</svg>
